<?xml version="1.0" encoding="UTF-8"?>
<svg id="Layer_2" xmlns="http://www.w3.org/2000/svg" version="1.1" viewBox="0 0 720 460">
  <!-- Generator: Adobe Illustrator 30.6.0, SVG Export Plug-In . SVG Version: 2.1.4 Build 109)  -->
  <defs>
    <style>
      .st0 {
        fill: #c3c8cf;
      }

      .st1 {
        fill: #d8dee6;
      }

      .st2 {
        fill: #d1d6de;
      }

      .st3 {
        fill: #1f2026;
      }

      .st4 {
        font-family: Knockout-68FullFeatherwt, Knockout;
        font-size: 36px;
      }

      .st5 {
        fill: #e0e5ed;
      }

      .st6 {
        fill: #cacfd6;
      }

      .st7 {
        fill: #e1e5ed;
      }
    </style>
  </defs>
  <path class="st5" d="M0,0v46c8.6-.3,17.3.2,26.3,1.6,26.4,3.9,50.8,15.6,74.7,27.3,19.5,9.6,39.2,19.5,60.2,25.1,23.6,6.5,47.4,6.9,71.9,3.4,30.9-4.4,62.2-12.1,93-20,38.8-10.1,75.4-21.1,112.3-32.2,48.3-14.3,83.4-26.1,131.7-5.2,29.9,12.7,56.7,31.4,85.2,47.8,23.1,13.8,44.4,22.7,64.8,27.8V0H0Z"/>
  <path class="st1" d="M570,46c-48.3-20.9-83.4-9-131.7,5.2-36.9,11.1-73.5,22.1-112.3,32.2-30.8,7.9-62.1,15.7-93,20-24.5,3.4-48.3,3.1-71.9-3.4-21-5.6-40.7-15.5-60.2-25.1-23.8-11.7-48.3-23.4-74.7-27.3-9-1.4-17.7-1.9-26.3-1.6v133.3c13.6,5.1,26.8,11.5,39.8,17.9,19.5,9.6,39.2,19.5,60.2,25.1,23.6,6.5,47.4,6.9,71.9,3.4,30.9-4.4,62.2-12.1,93-20,38.8-10.1,75.4-21.1,112.3-32.2,48.3-14.3,83.4-26.1,131.7-5.2,29.9,12.7,56.7,31.4,85.2,47.8,46.7,27.9,86.1,36,125.9,32.3v-126.8c-20.4-5.1-41.7-14-64.8-27.8-28.4-16.4-55.2-35.1-85.2-47.8Z"/>
  <path class="st2" d="M594.1,216.1c-28.4-16.4-55.2-35.1-85.2-47.8-48.3-20.9-83.4-9-131.7,5.2-36.9,11.1-73.5,22.1-112.3,32.2-30.8,7.9-62.1,15.7-93,20-24.5,3.4-48.3,3.1-71.9-3.4-21-5.6-40.7-15.5-60.2-25.1-13-6.4-26.2-12.8-39.8-17.9v150.5c12.6,5.9,25.5,11.2,38.9,14.8,23.6,6.5,47.4,6.9,71.9,3.4,30.9-4.4,62.2-12.1,93-20,38.8-10.1,75.4-21.1,112.3-32.2,48.3-14.3,83.4-26.1,131.7-5.2,29.9,12.7,56.7,31.4,85.2,47.8,70.1,41.9,123.7,39,187.1,19v-109c-39.8,3.7-79.2-4.4-125.9-32.3Z"/>
  <path class="st6" d="M532.9,338.4c-28.4-16.4-55.2-35.1-85.2-47.8-48.3-20.9-83.4-9-131.7,5.2-36.9,11.1-73.5,22.1-112.3,32.2-30.8,7.9-62.1,15.7-93,20-24.5,3.4-48.3,3.1-71.9-3.4-13.4-3.6-26.3-8.9-38.9-14.8v130.2h103.3c13.2-3.1,26.3-6.4,39.3-9.7,38.8-10.1,75.4-21.1,112.3-32.2,48.3-14.3,83.4-26.1,131.7-5.2,29.5,12.5,56,30.9,84.1,47.1h243c1.9-.7,3.8-1.5,5.8-2.2v2.2h.6v-102.6c-63.4,20-117,22.9-187.1-19Z"/>
  <path class="st0" d="M254.9,418.1c-36.9,11.1-73.5,22.1-112.3,32.2-13,3.3-26.2,6.7-39.3,9.7h367.4c-28-16.2-54.5-34.6-84.1-47.1-48.3-20.9-83.4-9-131.7,5.2Z"/>
  <path class="st0" d="M713.7,460h5.8v-2.2c-1.9.7-3.9,1.5-5.8,2.2Z"/>
  <path class="st7" d="M464.4,146.1c1.6,1.3,3.2,2.6,4.9,3.9l-2.2-7.4c-.8,1.2-1.7,2.4-2.7,3.5h0Z"/>
  <path class="st7" d="M392.5,51.3c1.9,0,3.7-1.3,3.7-3.6v-1.6c-4.2-.8-6.7.4-6.7,2.3v.6c0,1.3,1.1,2.3,3,2.3Z"/>
  <path class="st3" d="M357.9,156h0Z"/>
  <path class="st3" d="M392.6,243.6h-90.2c-3.3,0-6,2.7-6,6s2.7,6,6,6h90.2l2.2-6-2.2-6h0Z"/>
  <path class="st3" d="M392.6,243.6l2.2,6-2.2,6-4.6,12.8c8.6-7.5,22.6-14.6,33.8-18.8-11.2-4.1-25.2-11.3-33.8-18.8l4.6,12.8h0Z"/>
  <g>
    <path class="st3" d="M234.3,56.7v-22.1h8.5v22.1h-8.5ZM234.5,32.2v-5.5h8.1v5.5h-8.1Z"/>
    <path class="st3" d="M260.3,56.7v-14.7c0-1.4-.8-2.3-2-2.3s-2.4,1.2-2.4,2.6v14.4h-8.5v-22.1h7.4l.3,4c1.7-2.9,3.9-4.3,7.2-4.3s6.5,2.7,6.5,6.6v15.9h-8.5Z"/>
    <path class="st3" d="M287.3,41.8c-1.1-1.5-3.1-2.6-5-2.6s-2.1.6-2.1,1.4c0,2.7,12,2.1,12,9.4s-3.3,7.1-10.3,7.1-8.8-2.3-10.5-5.4l4.9-2.7c1.5,1.8,3.3,2.9,5.4,2.9s2.8-.5,2.8-1.4c0-2.9-12-1.9-12-9.2s3.7-7.2,10.1-7.2,8.2,2.2,9.6,5.4l-4.9,2.2Z"/>
    <path class="st3" d="M306.1,40.5v9.8c0,2.6.4,4.6,2,6.4h-9.1c-1.2-1.7-1.5-3.5-1.5-6.4v-9.8h-3.7v-5.9h4v-4.2l8.3-1.5v5.7h4.5v5.9h-4.5Z"/>
    <path class="st3" d="M332.8,57c-4.1,0-5.8-1.3-7-4.1-1.6,3-4,4.1-7.4,4.1s-6.9-2.3-6.9-6.2v-.2c0-4.2,4.9-6.7,12.8-6.3v-2.2c0-1.6-.9-2.5-2.5-2.5s-2.5,1-3.4,2.5l-5.5-2c1.4-3.5,4.3-6,9.7-6s10.2,3.7,10.2,8.3v8.4c0,.9.3,1.3,1.5,1.3v4.9h-1.5ZM324.4,47.3c-3.1-.3-4.8.7-4.8,2.3v.8c0,1.1.8,1.9,2.2,1.9s2.6-.9,2.6-2.6v-2.5Z"/>
    <path class="st3" d="M337.8,56.7v-30h8.5v30h-8.5Z"/>
    <path class="st3" d="M350.8,56.7v-30h8.5v30h-8.5Z"/>
    <path class="st3" d="M401.3,57.4c-2.5,0-5-1-7.3-2.6-2.8,1.5-6,2.6-9.4,2.6-6.7,0-11.1-3.8-11.1-8.6s2.9-7.1,7.4-8.7c-1.2-1.7-2-3.5-2-5,0-5.4,4.5-9.1,10.5-9.1s8.8,3.2,8.8,7.4-2.2,5.5-7.3,7.9c1.3,1.6,2.7,3.4,4.2,4.7,1.4-1.6,2.3-3.7,3-5.8l5.3,1.8c-.7,2.8-2.1,5.5-4,7.9.9.8,2,1.2,3.1,1.2s1.8-.3,2.4-.9l2.7,4.6c-1.7,1.5-3.5,2.5-6.3,2.5ZM383.9,45c-1.1.6-1.8,1.9-1.8,3.1,0,1.7,1.4,3.1,4.1,3.1s2.3-.3,2.9-.7c-1.8-1.6-3.7-3.7-5.2-5.5ZM389.3,32.3c-1.7,0-2.6,1.2-2.6,2.7s.5,1.8,1.2,2.7c2.2-.9,3.5-2.2,3.5-3.5s-.6-1.9-2.1-1.9Z"/>
    <path class="st3" d="M428.4,45v11.7h-8.5v-22.1h7.3l.4,4.9c1-4.1,4.1-6.1,8.5-4.8l-.5,7.6c-5.2-1.3-7.2.5-7.2,2.8Z"/>
    <path class="st3" d="M453.4,56.7l-.4-4c-1.8,2.9-4,4.3-7.3,4.3s-6.6-2.7-6.6-6.6v-15.9h8.5v14.7c0,1.4.8,2.3,2.1,2.3s2.4-1.2,2.4-2.6v-14.4h8.5v22.1h-7.2Z"/>
    <path class="st3" d="M478.1,56.7v-14.7c0-1.4-.8-2.3-2-2.3s-2.4,1.2-2.4,2.6v14.4h-8.5v-22.1h7.4l.3,4c1.7-2.9,3.9-4.3,7.2-4.3s6.5,2.7,6.5,6.6v15.9h-8.5Z"/>
  </g>
  <path class="st3" d="M289.9,97v57.1h-28v-57.1h-23.2v-21.1h74.2v21.1h-23.2,0Z"/>
  <path class="st3" d="M357.1,156c-25.3,0-38.2-13.3-38.2-29.4v-50.7h28.1v49.5c0,6.1,4,9.9,11.1,9.9s11.1-3.7,11.1-9.9v-49.5h25.3v50.7c0,16.1-12.1,29.4-37.5,29.4h0Z"/>
  <path class="st3" d="M468.7,154.1l-3.4-11.4c-5.3,8.1-15,13.3-26.9,13.3-23.7,0-37.1-14.3-37.1-31.5v-18.9c0-16.9,16.9-31.6,40.9-31.6s31.6,8.9,36.8,20.3l-18.4,9.6c-2.9-5.3-9.3-9.2-16.2-9.2s-14.3,4.4-14.3,11.1v18.7c0,6.1,4.5,10.8,12,10.8s10.7-3.3,10.7-8.5v-1.3h-9.4v-11.1h36.5v39.6h-11.1,0Z"/>
  <text class="st4" transform="translate(44.2 403.1)"><tspan x="0" y="0" xml:space="preserve">1) Drag Tug To Applications  2) Open Applications  3) Double-click Tug</tspan></text>
</svg>