<?xml version="1.0" encoding="UTF-8"?>
<svg id="Layer_2" xmlns="http://www.w3.org/2000/svg" version="1.1" viewBox="0 0 720 460">
  <!-- Generator: Adobe Illustrator 30.6.0, SVG Export Plug-In . SVG Version: 2.1.4 Build 109)  -->
  <defs>
    <style>
      .st0 {
        fill: #1f2026;
      }

      .st1 {
        fill: #dce0e8;
      }

      .st2 {
        fill: none;
        stroke: #1f2026;
        stroke-linecap: round;
        stroke-linejoin: round;
      }

      .st3 {
        fill: #c5cad1;
      }

      .st4 {
        fill: #cdd1d9;
      }

      .st5 {
        fill: #e1e5ed;
      }

      .st6 {
        fill: #e6eaf2;
      }

      .st7 {
        fill: #d6dae3;
      }
    </style>
  </defs>
  <g>
    <path class="st6" d="M146.9,16.2c29.7-2.8,51.9-9.1,70.6-16.2H0v1.4c41.4,12.1,94.6,19.8,146.9,14.7Z"/>
    <path class="st6" d="M441.5,22v1.3c28.6,25.4,55,50.7,100.2,53.9,63.8,4.5,133.7-37.2,164.4-77.2h-292.7c9.5,6.9,18.2,14.5,26.7,22h1.4Z"/>
    <polygon class="st6" points="719.9 0 719.9 78.4 719.9 93.8 719.9 181.2 719.9 196.6 719.9 284 719.9 299.4 719.9 386.8 719.9 402.3 719.9 460 720 460 720 0 719.9 0"/>
    <path class="st5" d="M464.4,146.1c1.6,1.3,3.2,2.6,4.9,3.9l-2.2-7.4c-.8,1.2-1.7,2.4-2.7,3.5Z"/>
    <path class="st5" d="M146.9,119c41.6-4,68.6-14.6,91.7-24.9v-18.8h47.1c14.6-4,30.7-5.7,51-3.3,12.3,1.5,23.3,4.1,33.4,7.6v-4.3h25.5v16c2.9,1.7,5.7,3.4,8.4,5.2,4.7-13.1,19.8-23.2,39.7-23.2s31.9,9,37.1,20.5l-18.6,9.7c-2.9-5.3-9.4-9.2-16.3-9.2s-14.4,4.4-14.4,11.2v11.9c6.4,5.5,12.5,11.1,18.7,16.5,2.9-1.4,4.2-3.9,4.2-7.2v-1.3h-9.5v-11.2h36.8v39.9h-7.1c18.5,13.6,39.3,24,67.1,26,77.1,5.5,163.2-56.8,178.2-101.5V0h-13.8c-30.8,39.9-100.7,81.7-164.4,77.2-45.2-3.2-71.6-28.4-100.2-53.9v33.3h-11V22h9.6c-8.5-7.5-17.2-15.1-26.7-22h-195.8c-18.7,7.1-41,13.3-70.6,16.2C94.6,21.2,41.4,13.5,0,1.4v102.8c41.4,12.1,94.6,19.8,146.9,14.7ZM413.5,22h11v34.6h-11V22ZM379.2,49.6c0-4.9,6.9-8.2,16.9-6.8v-2.4c0-2-1.4-3.1-4-3.1s-3.5,1-4.7,2.5l-6-3.7c2.1-3.3,6-5.5,12.2-5.5s13.4,4.7,13.4,10.2v8.5c0,1,.4,1.5,2,1.5v6.1h-2c-5.6,0-7.6-1.5-9.2-5.2-2.1,3.8-5.4,5.3-9.7,5.3s-8.9-2.8-8.9-7.2v-.2ZM356.2,31h5v-5l10.7-1.8v6.9h5.9v7.3h-5.9v11c0,2.9.6,5.1,2.7,7.1h-11.8c-1.5-1.8-1.9-3.8-1.9-7.1v-11.1h-4.7v-7.3ZM328.5,39.4c0-8.3,4.5-8.6,13.2-8.6s10.3,2.3,12.5,5.4l-5.5,3.6v-.2h0c-1.9-1.8-4.8-2.9-7.5-2.9s-2.7.7-2.7,1.5c0,3.1,15.7,2.1,15.7,10.5s-4.5,8.4-13.6,8.4-11.2-2.6-13.6-5.6l5.4-3.9c2.3,2,5.4,3.4,8.5,3.4s3.4-.5,3.4-1.5c0-3.2-15.7-1.8-15.7-10.1ZM295.7,31h9.5l.4,4.8c2.5-3.6,5.6-5.3,10-5.3s8.1,3.3,8.1,8.3v17.7h-11c0,0,0,0,0,0v-16.3c0-1.8-1-3-2.7-3s-3.3,1.7-3.3,3.5v15.9h-11v-25.6ZM279,22h10.3v6.4h-10.3v-6.4ZM278.7,31h11v25.6h-11v-25.6Z"/>
    <path class="st5" d="M392.5,51.3c1.9,0,3.7-1.3,3.7-3.6v-1.6c-4.2-.8-6.7.4-6.7,2.3v.6c0,1.3,1.1,2.3,3,2.3Z"/>
    <path class="st1" d="M146.9,221.8c97.9-9.4,115.4-55.9,189.8-47.1,100.1,11.9,117,101.9,205,108.1,77.1,5.5,163.2-56.8,178.2-101.5v-102.8c-15,44.8-101.1,107-178.2,101.5-27.9-2-48.6-12.3-67.1-26h-4.1c0,0-1.2-4-1.2-4-1.6-1.3-3.3-2.6-4.9-3.9-5.6,6.2-14.3,9.9-24.4,9.9-23.9,0-37.5-14.4-37.5-31.8v-19.1c0-3,.5-5.9,1.5-8.7-2.7-1.8-5.6-3.5-8.4-5.2v35.2c0,16.2-12.2,29.6-37.7,29.6,0,0,0,0,0,0h0s0,0,0,0c-25.5,0-38.5-13.4-38.5-29.6v-51.2h28.3v49.9c0,6.2,4,10,11.2,10s11.2-3.8,11.2-10v-45.6c-10.1-3.5-21.1-6.2-33.4-7.6-20.3-2.4-36.4-.7-51,3.3h27.8v21.3h-23.3v57.6h-28.2v-57.6h-23.4v-2.5c-23.1,10.3-50.1,20.9-91.7,24.9-52.3,5-105.5-2.6-146.9-14.7v102.8c41.4,12.1,94.6,19.8,146.9,14.7Z"/>
    <path class="st1" d="M431.5,124.2c0,6.2,4.5,10.9,12.1,10.9s5-.4,6.6-1.3c-6.2-5.5-12.3-11.1-18.7-16.5v6.9Z"/>
    <path class="st7" d="M146.9,324.6c97.9-9.4,115.4-55.9,189.8-47.1,100.1,11.9,117,101.9,205,108.1,77.1,5.5,163.2-56.8,178.2-101.5v-102.8c-15,44.8-101.1,107-178.2,101.5-88-6.2-104.9-96.2-205-108.1-74.4-8.8-91.9,37.7-189.8,47.1-52.3,5-105.5-2.6-146.9-14.7v102.8c41.4,12.1,94.6,19.8,146.9,14.7ZM386,268.4l4.6-12.8h-90.2c-3.3,0-6-2.7-6-6s2.7-6,6-6h90.2l-4.6-12.8c8.6,7.5,22.6,14.7,33.8,18.8-11.2,4.2-25.2,11.3-33.8,18.8Z"/>
    <path class="st4" d="M719.9,386.8v-102.8c-15,44.8-101.1,107-178.2,101.5-88-6.2-104.9-96.2-205-108.1-74.4-8.8-91.9,37.7-189.8,47.1-52.3,5-105.5-2.6-146.9-14.7v102.8c41.4,12.1,94.6,19.8,146.9,14.7,97.9-9.4,115.4-55.9,189.8-47.1,66.5,7.9,96.3,50.3,134.6,79.7h176.8c35.9-20.9,63.8-49.5,71.7-73.2Z"/>
    <path class="st3" d="M146.9,427.4c-52.3,5-105.5-2.6-146.9-14.7v47.4h471.3c-38.3-29.4-68.1-71.8-134.6-79.7-74.4-8.8-91.9,37.7-189.8,47.1Z"/>
    <path class="st3" d="M719.9,386.8c-7.9,23.7-35.8,52.3-71.7,73.2h71.7v-73.2Z"/>
    <polygon class="st0" points="238.6 94 238.6 96.5 262 96.5 262 154.1 290.2 154.1 290.2 96.5 313.5 96.5 313.5 75.2 285.7 75.2 238.6 75.2 238.6 94"/>
    <path class="st0" d="M370.1,75.2v49.9c0,6.2-4,10-11.2,10s-11.2-3.8-11.2-10v-49.9h-28.3v51.2c0,16.2,13,29.6,38.5,29.6,25.6,0,37.7-13.4,37.7-29.6v-51.2h-25.5Z"/>
    <path class="st0" d="M357.9,156s0,0,0,0,0,0,0,0h0Z"/>
    <path class="st0" d="M481.7,114.1h-36.8v11.2h9.5v1.3c0,3.3-1.3,5.8-4.2,7.2-1.7.8-3.8,1.3-6.6,1.3-7.6,0-12.1-4.7-12.1-10.9v-18.8c0-6.8,7.5-11.2,14.4-11.2s13.4,3.9,16.3,9.2l18.6-9.7c-5.2-11.5-13-20.5-37.1-20.5s-35,10-39.7,23.2c-1,2.8-1.5,5.7-1.5,8.7v19.1c0,17.4,13.6,31.8,37.5,31.8s18.8-3.8,24.4-9.9c1-1.1,1.9-2.2,2.7-3.5l2.2,7.4,1.2,4.1h0c0,0,4.1,0,4.1,0h7.1v-39.9Z"/>
    <rect class="st0" x="278.7" y="31" width="11" height="25.6"/>
    <rect class="st0" x="279" y="22" width="10.3" height="6.4"/>
    <line class="st2" x1="312.7" y1="56.5" x2="312.7" y2="56.6"/>
    <path class="st0" d="M306.7,40.7c0-1.8,1.6-3.5,3.3-3.5s2.7,1.2,2.7,3v16.3h11v-17.7c0-5-3.7-8.3-8.1-8.3s-7.5,1.7-10,5.3l-.4-4.8h-9.5v25.6h11v-15.9Z"/>
    <path class="st0" d="M340.8,51c-3.1,0-6.2-1.4-8.5-3.4l-5.4,3.9c2.4,3,4.5,5.6,13.6,5.6s13.6,0,13.6-8.4-15.7-7.4-15.7-10.5,0-1.5,2.7-1.5,5.6,1.1,7.5,2.9h0v.2l5.5-3.6c-2.2-3.1-3.8-5.4-12.5-5.4s-13.2.3-13.2,8.6,15.7,6.9,15.7,10.1-.3,1.5-3.4,1.5Z"/>
    <path class="st0" d="M360.9,49.4c0,3.3.4,5.3,1.9,7.1h11.8c-2.1-2-2.7-4.2-2.7-7.1v-11h5.9v-7.3h-5.9v-6.9l-10.7,1.8v5h-5v7.3h4.7v11.1Z"/>
    <path class="st0" d="M388.1,57c4.3,0,7.6-1.5,9.7-5.3,1.6,3.7,3.6,5.3,9.2,5.3h0c0,0,2,0,2,0v-6.1c-1.6,0-2-.5-2-1.5v-8.5c0-5.5-7.2-10.2-13.4-10.2s-10.1,2.2-12.2,5.5l6,3.7c1.2-1.5,2.1-2.5,4.7-2.5s4,1.1,4,3.1v2.4c-10-1.4-16.9,1.9-16.9,6.8v.2c0,4.4,4.6,7.2,8.9,7.2ZM389.5,48.4c0-1.9,2.5-3.1,6.7-2.3v1.6c0,2.3-1.8,3.6-3.7,3.6s-3-1-3-2.3v-.6Z"/>
    <rect class="st0" x="413.5" y="22" width="11" height="34.6"/>
    <polygon class="st0" points="440.1 22 430.5 22 430.5 56.6 441.5 56.6 441.5 23.3 441.5 22 440.1 22"/>
    <path class="st0" d="M390.6,243.6h-90.2c-3.3,0-6,2.7-6,6s2.7,6,6,6h90.2l2.2-6-2.2-6Z"/>
    <path class="st0" d="M390.6,243.6l2.2,6-2.2,6-4.6,12.8c8.6-7.5,22.6-14.6,33.8-18.8-11.2-4.1-25.2-11.3-33.8-18.8l4.6,12.8Z"/>
  </g>
  <g>
    <path d="M193.1,402h-9.5v-28h9.5c5.6,0,9.2,3.7,9.2,8.6v11.5c0,4.8-3.5,7.9-9.2,7.9ZM194.8,382.4c0-1.6-.7-2.4-2.2-2.4h-1.4v16h1.4c1.5,0,2.2-.9,2.2-2.4v-11.2Z"/>
    <path d="M217.6,402c-1.2,0-1.8-2.3-1.8-4.3v-4.6c0-.8-.5-1.8-1.6-1.8h-1.7v10.8h-7.5v-28h10.7c3.7,0,7.1,2.5,7.1,6.4v4.1c0,1.4-1,3.2-2.9,3.9,1.9.8,3.1,2.5,3.1,4v4.9c0,1.8.5,3.2,1,4.5h0c0,.1-6.2.1-6.2.1ZM215.6,381.1c0-1-.4-1.4-1.3-1.4h-1.8v6.5h1.8c.8,0,1.3-.4,1.3-1.4v-3.7Z"/>
    <path d="M236.6,402l-.5-3.9h-4.5l-.6,3.9h-6.8l5.7-28h8.7l5.5,28h-7.5ZM234.2,383.5l-1.6,9.5h2.9l-1.3-9.5Z"/>
    <path d="M259.6,402l-.8-2.7c-1,2.2-3.3,3.4-5.6,3.4-5.1,0-8.3-3.6-8.3-7.7v-13.9c0-3.8,3.8-7.7,9.5-7.7s9.3,3.9,9.3,7.7v3.5h-7.3v-3.4c0-.9-.6-1.6-1.9-1.6s-1.9.7-1.9,1.6v13.7c0,.9.8,1.7,2,1.7s2-.8,2-1.7v-2.4h-2.1v-4.5h9.3v14.2h-4.2Z"/>
    <path d="M285.1,380.2v21.8h-7.5v-21.8h-5.3v-6.2h18.1v6.2h-5.3Z"/>
    <path d="M301.2,402.7c-5.3,0-9.4-3.3-9.4-8.1v-13.2c0-4.8,4.1-8.1,9.4-8.1s9.4,3.2,9.4,8.1v13.2c0,4.8-4.1,8.1-9.4,8.1ZM302.9,381c0-.9-.8-1.5-1.7-1.5s-1.7.5-1.7,1.5v14c0,.9.8,1.5,1.7,1.5s1.7-.5,1.7-1.5v-14Z"/>
    <path d="M331,402l-.5-3.9h-4.5l-.6,3.9h-6.8l5.7-28h8.7l5.5,28h-7.5ZM328.6,383.5l-1.6,9.5h2.9l-1.3-9.5Z"/>
    <path d="M350.9,392.2h-3.3v9.8h-7.5v-28h10.8c3.9,0,6.9,2.5,6.9,6.7v4.7c0,4.2-2.9,6.7-6.9,6.7ZM350.8,381.1c0-1-.5-1.4-1.3-1.4h-1.8v7.3h1.8c.8,0,1.3-.4,1.3-1.4v-4.5Z"/>
    <path d="M370.9,392.2h-3.3v9.8h-7.5v-28h10.8c3.9,0,6.9,2.5,6.9,6.7v4.7c0,4.2-2.9,6.7-6.9,6.7ZM370.8,381.1c0-1-.5-1.4-1.3-1.4h-1.8v7.3h1.8c.8,0,1.3-.4,1.3-1.4v-4.5Z"/>
    <path d="M380.1,402v-28h7.5v21.6h8v6.3h-15.5Z"/>
    <path d="M397.5,402v-28h7.5v28h-7.5Z"/>
    <path d="M417.5,402.7c-5.6,0-9.7-3.4-9.7-8.6v-12.2c0-5.2,4.1-8.6,9.7-8.6s8.7,3.3,8.7,8.1v3.2h-6.7v-3.2c0-1.1-.7-1.8-2.1-1.8s-2.1.8-2.1,1.8v13.3c0,1.1.7,1.8,2.1,1.8s2.1-.8,2.1-1.8v-3.2h6.7v3.2c0,4.8-3.4,8.1-8.7,8.1Z"/>
    <path d="M439.1,402l-.5-3.9h-4.5l-.6,3.9h-6.8l5.7-28h8.7l5.5,28h-7.5ZM436.6,383.5l-1.6,9.5h2.9l-1.3-9.5Z"/>
    <path d="M458.4,380.2v21.8h-7.5v-21.8h-5.3v-6.2h18.1v6.2h-5.3Z"/>
    <path d="M465.6,402v-28h7.5v28h-7.5Z"/>
    <path d="M485.3,402.7c-5.3,0-9.4-3.3-9.4-8.1v-13.2c0-4.8,4.1-8.1,9.4-8.1s9.4,3.2,9.4,8.1v13.2c0,4.8-4.1,8.1-9.4,8.1ZM486.9,381c0-.9-.8-1.5-1.7-1.5s-1.7.5-1.7,1.5v14c0,.9.8,1.5,1.7,1.5s1.7-.5,1.7-1.5v-14Z"/>
    <path d="M510.4,402l-4.4-9.1-1.9-4v13.1h-6.7v-28h6.5l4.2,9.4,1.8,4v-13.4h6.7v28h-6.2Z"/>
    <path d="M528,402.7c-5.7,0-9.2-3-9.2-8v-1.5h6.6v1.3c0,1.3.8,2.3,2.3,2.3s2.1-.8,2.1-2.3-2.1-2.9-4.4-4.4c-3-1.8-6.3-4.1-6.3-8.2s3.1-8.6,9.2-8.6,8.4,3.6,8.4,7.9v1.2h-6.6v-1.3c0-1.2-.8-2-1.8-2s-2,.7-2,2,2.1,2.9,4.4,4.4c3,1.9,6.4,4.2,6.4,8.5s-3.2,8.7-9,8.7Z"/>
  </g>
</svg>