<?xml version="1.0" encoding="UTF-8"?>
<svg id="Layer_2" xmlns="http://www.w3.org/2000/svg" version="1.1" viewBox="0 0 720 460">
  <!-- Generator: Adobe Illustrator 30.6.0, SVG Export Plug-In . SVG Version: 2.1.4 Build 109)  -->
  <defs>
    <style>
      .st0 {
        fill: #c3c8cf;
      }

      .st1 {
        fill: #d8dee6;
      }

      .st2 {
        fill: #d1d6de;
      }

      .st3, .st4 {
        fill: #1f2026;
      }

      .st5 {
        font-family: Knockout-68FullFeatherwt, Knockout;
        font-size: 36px;
      }

      .st6 {
        fill: #e0e5ed;
      }

      .st7 {
        fill: #cacfd6;
      }

      .st4 {
        font-family: Knockout-72FullCruiserwt, Knockout;
        font-size: 45px;
      }

      .st8 {
        fill: #e1e5ed;
      }
    </style>
  </defs>
  <path class="st6" d="M0,0v46c8.6-.3,17.3.2,26.3,1.6,26.4,3.9,50.8,15.6,74.7,27.3,19.5,9.6,39.2,19.5,60.2,25.1,23.6,6.5,47.4,6.9,71.9,3.4,30.9-4.4,62.2-12.1,93-20,38.8-10.1,75.4-21.1,112.3-32.2,48.3-14.3,83.4-26.1,131.7-5.2,29.9,12.7,56.7,31.4,85.2,47.8,23.1,13.8,44.4,22.7,64.8,27.8V0H0Z"/>
  <path class="st1" d="M570,46c-48.3-20.9-83.4-9-131.7,5.2-36.9,11.1-73.5,22.1-112.3,32.2-30.8,7.9-62.1,15.7-93,20-24.5,3.4-48.3,3.1-71.9-3.4-21-5.6-40.7-15.5-60.2-25.1-23.8-11.7-48.3-23.4-74.7-27.3-9-1.4-17.7-1.9-26.3-1.6v133.3c13.6,5.1,26.8,11.5,39.8,17.9,19.5,9.6,39.2,19.5,60.2,25.1,23.6,6.5,47.4,6.9,71.9,3.4,30.9-4.4,62.2-12.1,93-20,38.8-10.1,75.4-21.1,112.3-32.2,48.3-14.3,83.4-26.1,131.7-5.2,29.9,12.7,56.7,31.4,85.2,47.8,46.7,27.9,86.1,36,125.9,32.3v-126.8c-20.4-5.1-41.7-14-64.8-27.8-28.4-16.4-55.2-35.1-85.2-47.8Z"/>
  <path class="st2" d="M594.1,216.1c-28.4-16.4-55.2-35.1-85.2-47.8-48.3-20.9-83.4-9-131.7,5.2-36.9,11.1-73.5,22.1-112.3,32.2-30.8,7.9-62.1,15.7-93,20-24.5,3.4-48.3,3.1-71.9-3.4-21-5.6-40.7-15.5-60.2-25.1-13-6.4-26.2-12.8-39.8-17.9v150.5c12.6,5.9,25.5,11.2,38.9,14.8,23.6,6.5,47.4,6.9,71.9,3.4,30.9-4.4,62.2-12.1,93-20,38.8-10.1,75.4-21.1,112.3-32.2,48.3-14.3,83.4-26.1,131.7-5.2,29.9,12.7,56.7,31.4,85.2,47.8,70.1,41.9,123.7,39,187.1,19v-109c-39.8,3.7-79.2-4.4-125.9-32.3Z"/>
  <path class="st7" d="M532.9,338.4c-28.4-16.4-55.2-35.1-85.2-47.8-48.3-20.9-83.4-9-131.7,5.2-36.9,11.1-73.5,22.1-112.3,32.2-30.8,7.9-62.1,15.7-93,20-24.5,3.4-48.3,3.1-71.9-3.4-13.4-3.6-26.3-8.9-38.9-14.8v130.2h103.3c13.2-3.1,26.3-6.4,39.3-9.7,38.8-10.1,75.4-21.1,112.3-32.2,48.3-14.3,83.4-26.1,131.7-5.2,29.5,12.5,56,30.9,84.1,47.1h243c1.9-.7,3.8-1.5,5.8-2.2v2.2h.6v-102.6c-63.4,20-117,22.9-187.1-19Z"/>
  <path class="st0" d="M254.9,418.1c-36.9,11.1-73.5,22.1-112.3,32.2-13,3.3-26.2,6.7-39.3,9.7h367.4c-28-16.2-54.5-34.6-84.1-47.1-48.3-20.9-83.4-9-131.7,5.2Z"/>
  <path class="st0" d="M713.7,460h5.8v-2.2c-1.9.7-3.9,1.5-5.8,2.2Z"/>
  <path class="st8" d="M464.4,146.1c1.6,1.3,3.2,2.6,4.9,3.9l-2.2-7.4c-.8,1.2-1.7,2.4-2.7,3.5h0Z"/>
  <path class="st8" d="M392.5,51.3c1.9,0,3.7-1.3,3.7-3.6v-1.6c-4.2-.8-6.7.4-6.7,2.3v.6c0,1.3,1.1,2.3,3,2.3Z"/>
  <path class="st3" d="M357.9,156h0Z"/>
  <path class="st3" d="M392.6,243.6h-90.2c-3.3,0-6,2.7-6,6s2.7,6,6,6h90.2l2.2-6-2.2-6h0Z"/>
  <path class="st3" d="M392.6,243.6l2.2,6-2.2,6-4.6,12.8c8.6-7.5,22.6-14.6,33.8-18.8-11.2-4.1-25.2-11.3-33.8-18.8l4.6,12.8h0Z"/>
  <text class="st4" transform="translate(232 56.7)"><tspan x="0" y="0">install &amp; run</tspan></text>
  <path class="st3" d="M289.9,97v57.1h-28v-57.1h-23.2v-21.1h74.2v21.1h-23.2,0Z"/>
  <path class="st3" d="M357.1,156c-25.3,0-38.2-13.3-38.2-29.4v-50.7h28.1v49.5c0,6.1,4,9.9,11.1,9.9s11.1-3.7,11.1-9.9v-49.5h25.3v50.7c0,16.1-12.1,29.4-37.5,29.4h0Z"/>
  <path class="st3" d="M468.7,154.1l-3.4-11.4c-5.3,8.1-15,13.3-26.9,13.3-23.7,0-37.1-14.3-37.1-31.5v-18.9c0-16.9,16.9-31.6,40.9-31.6s31.6,8.9,36.8,20.3l-18.4,9.6c-2.9-5.3-9.3-9.2-16.2-9.2s-14.3,4.4-14.3,11.1v18.7c0,6.1,4.5,10.8,12,10.8s10.7-3.3,10.7-8.5v-1.3h-9.4v-11.1h36.5v39.6h-11.1,0Z"/>
  <text class="st5" transform="translate(44.2 403.1)"><tspan x="0" y="0" xml:space="preserve">1) Drag Tug To Applications  2) Open Applications  3) Double-click Tug</tspan></text>
</svg>