<?xml version="1.0" encoding="UTF-8"?>
<svg id="Layer_2" xmlns="http://www.w3.org/2000/svg" version="1.1" viewBox="0 0 720 460">
  <!-- Generator: Adobe Illustrator 30.6.0, SVG Export Plug-In . SVG Version: 2.1.4 Build 109)  -->
  <defs>
    <style>
      .st0 {
        fill: #c3c8cf;
      }

      .st1 {
        fill: #d8dee6;
      }

      .st2 {
        fill: #d1d6de;
      }

      .st3 {
        fill: #1f2026;
      }

      .st4 {
        fill: #e0e5ed;
      }

      .st5 {
        fill: #cacfd6;
      }

      .st6 {
        fill: #e1e5ed;
      }
    </style>
  </defs>
  <path class="st4" d="M0,0v46c8.6-.3,17.3.2,26.3,1.6,26.4,3.9,50.8,15.6,74.7,27.3,19.5,9.6,39.2,19.5,60.2,25.1,23.6,6.5,47.4,6.9,71.9,3.4,30.9-4.4,62.2-12.1,93-20,38.8-10.1,75.4-21.1,112.3-32.2,48.3-14.3,83.4-26.1,131.7-5.2,29.9,12.7,56.7,31.4,85.2,47.8,23.1,13.8,44.4,22.7,64.8,27.8V0H0Z"/>
  <path class="st1" d="M570,46c-48.3-20.9-83.4-9-131.7,5.2-36.9,11.1-73.5,22.1-112.3,32.2-30.8,7.9-62.1,15.7-93,20-24.5,3.4-48.3,3.1-71.9-3.4-21-5.6-40.7-15.5-60.2-25.1-23.8-11.7-48.3-23.4-74.7-27.3-9-1.4-17.7-1.9-26.3-1.6v133.3c13.6,5.1,26.8,11.5,39.8,17.9,19.5,9.6,39.2,19.5,60.2,25.1,23.6,6.5,47.4,6.9,71.9,3.4,30.9-4.4,62.2-12.1,93-20,38.8-10.1,75.4-21.1,112.3-32.2,48.3-14.3,83.4-26.1,131.7-5.2,29.9,12.7,56.7,31.4,85.2,47.8,46.7,27.9,86.1,36,125.9,32.3v-126.8c-20.4-5.1-41.7-14-64.8-27.8-28.4-16.4-55.2-35.1-85.2-47.8Z"/>
  <path class="st2" d="M594.1,216.1c-28.4-16.4-55.2-35.1-85.2-47.8-48.3-20.9-83.4-9-131.7,5.2-36.9,11.1-73.5,22.1-112.3,32.2-30.8,7.9-62.1,15.7-93,20-24.5,3.4-48.3,3.1-71.9-3.4-21-5.6-40.7-15.5-60.2-25.1-13-6.4-26.2-12.8-39.8-17.9v150.5c12.6,5.9,25.5,11.2,38.9,14.8,23.6,6.5,47.4,6.9,71.9,3.4,30.9-4.4,62.2-12.1,93-20,38.8-10.1,75.4-21.1,112.3-32.2,48.3-14.3,83.4-26.1,131.7-5.2,29.9,12.7,56.7,31.4,85.2,47.8,70.1,41.9,123.7,39,187.1,19v-109c-39.8,3.7-79.2-4.4-125.9-32.3Z"/>
  <path class="st5" d="M532.9,338.4c-28.4-16.4-55.2-35.1-85.2-47.8-48.3-20.9-83.4-9-131.7,5.2-36.9,11.1-73.5,22.1-112.3,32.2-30.8,7.9-62.1,15.7-93,20-24.5,3.4-48.3,3.1-71.9-3.4-13.4-3.6-26.3-8.9-38.9-14.8v130.2h103.3c13.2-3.1,26.3-6.4,39.3-9.7,38.8-10.1,75.4-21.1,112.3-32.2,48.3-14.3,83.4-26.1,131.7-5.2,29.5,12.5,56,30.9,84.1,47.1h243c1.9-.7,3.8-1.5,5.8-2.2v2.2h.6v-102.6c-63.4,20-117,22.9-187.1-19Z"/>
  <path class="st0" d="M254.9,418.1c-36.9,11.1-73.5,22.1-112.3,32.2-13,3.3-26.2,6.7-39.3,9.7h367.4c-28-16.2-54.5-34.6-84.1-47.1-48.3-20.9-83.4-9-131.7,5.2Z"/>
  <path class="st0" d="M713.7,460h5.8v-2.2c-1.9.7-3.9,1.5-5.8,2.2Z"/>
  <path class="st6" d="M464.4,146.1c1.6,1.3,3.2,2.6,4.9,3.9l-2.2-7.4c-.8,1.2-1.7,2.4-2.7,3.5h0Z"/>
  <path class="st6" d="M392.5,51.3c1.9,0,3.7-1.3,3.7-3.6v-1.6c-4.2-.8-6.7.4-6.7,2.3v.6c0,1.3,1.1,2.3,3,2.3Z"/>
  <path class="st3" d="M357.9,156h0Z"/>
  <path class="st3" d="M392.6,243.6h-90.2c-3.3,0-6,2.7-6,6s2.7,6,6,6h90.2l2.2-6-2.2-6h0Z"/>
  <path class="st3" d="M392.6,243.6l2.2,6-2.2,6-4.6,12.8c8.6-7.5,22.6-14.6,33.8-18.8-11.2-4.1-25.2-11.3-33.8-18.8l4.6,12.8h0Z"/>
  <g>
    <path class="st3" d="M234.3,56.7v-22.1h8.5v22.1h-8.5ZM234.5,32.2v-5.5h8.1v5.5h-8.1Z"/>
    <path class="st3" d="M260.3,56.7v-14.7c0-1.4-.8-2.3-2-2.3s-2.4,1.2-2.4,2.6v14.4h-8.5v-22.1h7.4l.3,4c1.7-2.9,3.9-4.3,7.2-4.3s6.5,2.7,6.5,6.6v15.9h-8.5Z"/>
    <path class="st3" d="M287.3,41.8c-1.1-1.5-3.1-2.6-5-2.6s-2.1.6-2.1,1.4c0,2.7,12,2.1,12,9.4s-3.3,7.1-10.3,7.1-8.8-2.3-10.5-5.4l4.9-2.7c1.5,1.8,3.3,2.9,5.4,2.9s2.8-.5,2.8-1.4c0-2.9-12-1.9-12-9.2s3.7-7.2,10.1-7.2,8.2,2.2,9.6,5.4l-4.9,2.2Z"/>
    <path class="st3" d="M306.1,40.5v9.8c0,2.6.4,4.6,2,6.4h-9.1c-1.2-1.7-1.5-3.5-1.5-6.4v-9.8h-3.7v-5.9h4v-4.2l8.3-1.5v5.7h4.5v5.9h-4.5Z"/>
    <path class="st3" d="M332.8,57c-4.1,0-5.8-1.3-7-4.1-1.6,3-4,4.1-7.4,4.1s-6.9-2.3-6.9-6.2v-.2c0-4.2,4.9-6.7,12.8-6.3v-2.2c0-1.6-.9-2.5-2.5-2.5s-2.5,1-3.4,2.5l-5.5-2c1.4-3.5,4.3-6,9.7-6s10.2,3.7,10.2,8.3v8.4c0,.9.3,1.3,1.5,1.3v4.9h-1.5ZM324.4,47.3c-3.1-.3-4.8.7-4.8,2.3v.8c0,1.1.8,1.9,2.2,1.9s2.6-.9,2.6-2.6v-2.5Z"/>
    <path class="st3" d="M337.8,56.7v-30h8.5v30h-8.5Z"/>
    <path class="st3" d="M350.8,56.7v-30h8.5v30h-8.5Z"/>
    <path class="st3" d="M401.3,57.4c-2.5,0-5-1-7.3-2.6-2.8,1.5-6,2.6-9.4,2.6-6.7,0-11.1-3.8-11.1-8.6s2.9-7.1,7.4-8.7c-1.2-1.7-2-3.5-2-5,0-5.4,4.5-9.1,10.5-9.1s8.8,3.2,8.8,7.4-2.2,5.5-7.3,7.9c1.3,1.6,2.7,3.4,4.2,4.7,1.4-1.6,2.3-3.7,3-5.8l5.3,1.8c-.7,2.8-2.1,5.5-4,7.9.9.8,2,1.2,3.1,1.2s1.8-.3,2.4-.9l2.7,4.6c-1.7,1.5-3.5,2.5-6.3,2.5ZM383.9,45c-1.1.6-1.8,1.9-1.8,3.1,0,1.7,1.4,3.1,4.1,3.1s2.3-.3,2.9-.7c-1.8-1.6-3.7-3.7-5.2-5.5ZM389.3,32.3c-1.7,0-2.6,1.2-2.6,2.7s.5,1.8,1.2,2.7c2.2-.9,3.5-2.2,3.5-3.5s-.6-1.9-2.1-1.9Z"/>
    <path class="st3" d="M428.4,45v11.7h-8.5v-22.1h7.3l.4,4.9c1-4.1,4.1-6.1,8.5-4.8l-.5,7.6c-5.2-1.3-7.2.5-7.2,2.8Z"/>
    <path class="st3" d="M453.4,56.7l-.4-4c-1.8,2.9-4,4.3-7.3,4.3s-6.6-2.7-6.6-6.6v-15.9h8.5v14.7c0,1.4.8,2.3,2.1,2.3s2.4-1.2,2.4-2.6v-14.4h8.5v22.1h-7.2Z"/>
    <path class="st3" d="M478.1,56.7v-14.7c0-1.4-.8-2.3-2-2.3s-2.4,1.2-2.4,2.6v14.4h-8.5v-22.1h7.4l.3,4c1.7-2.9,3.9-4.3,7.2-4.3s6.5,2.7,6.5,6.6v15.9h-8.5Z"/>
  </g>
  <path class="st3" d="M289.9,97v57.1h-28v-57.1h-23.2v-21.1h74.2v21.1h-23.2,0Z"/>
  <path class="st3" d="M357.1,156c-25.3,0-38.2-13.3-38.2-29.4v-50.7h28.1v49.5c0,6.1,4,9.9,11.1,9.9s11.1-3.7,11.1-9.9v-49.5h25.3v50.7c0,16.1-12.1,29.4-37.5,29.4h0Z"/>
  <path class="st3" d="M468.7,154.1l-3.4-11.4c-5.3,8.1-15,13.3-26.9,13.3-23.7,0-37.1-14.3-37.1-31.5v-18.9c0-16.9,16.9-31.6,40.9-31.6s31.6,8.9,36.8,20.3l-18.4,9.6c-2.9-5.3-9.3-9.2-16.2-9.2s-14.3,4.4-14.3,11.1v18.7c0,6.1,4.5,10.8,12,10.8s10.7-3.3,10.7-8.5v-1.3h-9.4v-11.1h36.5v39.6h-11.1,0Z"/>
  <g>
    <path d="M34.2,385.6h-3.1v-2.7c.7,0,1.2,0,1.7-.1.5,0,.9-.2,1.2-.4.3-.2.6-.5.8-.8.2-.3.4-.7.5-1.2h3.1v16.3h-4.3v-11.1Z"/>
    <path d="M47.6,385.2c.6,1.7.9,3.5.9,5.4s-.3,3.7-.9,5.4c-.6,1.7-1.4,3.3-2.4,4.9h-3.3c.9-1.6,1.6-3.3,2-5,.4-1.7.6-3.4.6-5.3s-.2-3.6-.6-5.3c-.4-1.7-1.1-3.4-2-5h3.3c1,1.6,1.8,3.2,2.4,4.9Z"/>
    <path d="M62.3,380.3c1.2,0,2.2.2,2.9.7.7.5,1.2,1.1,1.6,1.8.3.8.6,1.6.6,2.6,0,1,.1,2,.1,3.1s0,2.1-.1,3.1c0,1-.3,1.9-.6,2.6-.3.8-.9,1.4-1.6,1.8s-1.7.7-2.9.7h-6.2v-16.4h6.2ZM61.2,393.6c.4,0,.7,0,1-.2s.4-.4.6-.7.2-.9.3-1.6,0-1.6,0-2.7,0-2,0-2.7-.1-1.2-.3-1.6-.3-.6-.6-.7-.6-.2-1-.2h-.9v10.3h.9Z"/>
    <path d="M73,384.2v2h0c.2-.8.6-1.3,1.1-1.7.5-.4,1.1-.6,1.7-.6h.7v3.9c-.2,0-.4,0-.5,0-.2,0-.3,0-.5,0-.7,0-1.3.2-1.7.5-.4.3-.6.9-.6,1.7v6.8h-4.1v-12.4h4Z"/>
    <path d="M83.1,396c0-.2,0-.5,0-.7h0c-.2.6-.6,1-1.1,1.2-.5.3-1.1.4-1.7.4s-1.2,0-1.6-.2-.8-.4-1.1-.7c-.3-.3-.5-.7-.6-1.2-.1-.4-.2-.9-.2-1.5s0-1.1.2-1.5c.1-.4.3-.8.6-1.1.3-.3.6-.6,1.1-.8.4-.2,1-.4,1.7-.6l1.6-.4c.4-.1.8-.3.9-.5s.3-.5.3-.9c0-.8-.4-1.2-1.1-1.2s-.7.1-.9.3c-.2.2-.3.7-.3,1.3h-3.6c0-.9.2-1.6.5-2.2.3-.5.7-1,1.2-1.3s1-.5,1.5-.6c.6,0,1.1-.1,1.5-.1.7,0,1.4,0,2,.2.6.1,1.1.3,1.6.6s.8.7,1,1.2.4,1.2.4,2v6.1c0,.6,0,1.1,0,1.5,0,.4.2.8.3,1.2h-4c0-.2-.1-.4-.2-.7ZM82.7,393.7c.2-.3.3-.9.3-1.5v-1.5h0c-.1.2-.3.3-.6.3s-.5.1-.8.3c-.3.2-.5.4-.7.6s-.2.6-.2,1,0,.7.3,1,.4.4.7.4c.5,0,.8-.2,1-.5Z"/>
    <path d="M99,384.2v12.2c0,.8-.1,1.5-.4,2.1-.3.6-.6,1-1.1,1.4-.5.3-1,.6-1.6.7-.6.1-1.3.2-2,.2s-1.3,0-1.9-.1c-.6,0-1.1-.3-1.5-.5s-.8-.6-1-1.1-.4-1-.4-1.7h3.7c0,.3,0,.5.3.7s.4.3.8.3.3,0,.5,0c.2,0,.3,0,.4-.2.1-.1.2-.3.3-.5s.1-.5.1-.8v-2.3h0c-.3.7-.7,1.2-1.2,1.5s-1.1.4-1.6.4-.8,0-1.3-.2-.8-.5-1.2-.9c-.4-.4-.6-1.1-.9-1.9-.2-.8-.3-1.9-.3-3.1s0-2.2.3-3c.2-.8.4-1.4.8-1.9.3-.5.7-.8,1.2-1,.5-.2,1-.3,1.6-.3s1.1.2,1.6.5c.5.3.9.8,1.1,1.6h0v-1.7h3.9ZM92.7,391.7c0,.4.1.7.2,1,0,.2.2.4.4.5.1,0,.3.1.5.1s.3,0,.5-.1c.1,0,.3-.2.4-.5,0-.2.2-.5.2-1,0-.4,0-.9,0-1.6s0-1.2,0-1.6c0-.4-.1-.7-.2-1,0-.2-.2-.4-.4-.5-.1,0-.3-.1-.5-.1s-.4,0-.5.1c-.1,0-.3.2-.4.5,0,.2-.2.5-.2,1s0,.9,0,1.6,0,1.2,0,1.6Z"/>
    <path d="M105,383.9v-3.6h10.7v3.6h-3.2v12.8h-4.3v-12.8h-3.2Z"/>
    <path d="M118.9,384.2v8.2c0,.5,0,.9.2,1.1.2.2.4.3.8.3s.6-.1.8-.3c.2-.2.2-.6.2-1.1v-8.2h4.1v12.4h-4v-1.5h0c-.5,1.2-1.5,1.8-3,1.8s-.9,0-1.3-.1c-.4,0-.7-.3-1-.5-.3-.3-.5-.6-.7-1-.2-.4-.3-1-.3-1.6v-9.4h4.1Z"/>
    <path d="M136.9,384.2v12.2c0,.8-.1,1.5-.4,2.1-.3.6-.6,1-1.1,1.4-.5.3-1,.6-1.6.7-.6.1-1.3.2-2,.2s-1.3,0-1.9-.1c-.6,0-1.1-.3-1.5-.5s-.8-.6-1-1.1-.4-1-.4-1.7h3.7c0,.3,0,.5.3.7s.4.3.8.3.3,0,.5,0c.2,0,.3,0,.4-.2.1-.1.2-.3.3-.5s.1-.5.1-.8v-2.3h0c-.3.7-.7,1.2-1.2,1.5s-1.1.4-1.6.4-.8,0-1.3-.2-.8-.5-1.2-.9c-.4-.4-.6-1.1-.9-1.9-.2-.8-.3-1.9-.3-3.1s0-2.2.3-3c.2-.8.4-1.4.8-1.9.3-.5.7-.8,1.2-1,.5-.2,1-.3,1.6-.3s1.1.2,1.6.5c.5.3.9.8,1.1,1.6h0v-1.7h3.9ZM130.7,391.7c0,.4.1.7.2,1,0,.2.2.4.4.5.1,0,.3.1.5.1s.3,0,.5-.1c.1,0,.3-.2.4-.5,0-.2.2-.5.2-1,0-.4,0-.9,0-1.6s0-1.2,0-1.6c0-.4-.1-.7-.2-1,0-.2-.2-.4-.4-.5-.1,0-.3-.1-.5-.1s-.4,0-.5.1c-.1,0-.3.2-.4.5,0,.2-.2.5-.2,1s0,.9,0,1.6,0,1.2,0,1.6Z"/>
    <path d="M143,383.9v-3.6h10.7v3.6h-3.2v12.8h-4.3v-12.8h-3.2Z"/>
    <path d="M162.8,392.9c-.1.8-.4,1.5-.7,2.1-.4.6-.9,1.1-1.6,1.4-.7.4-1.6.5-2.8.5s-2.2-.2-2.9-.5c-.7-.3-1.2-.8-1.6-1.4-.4-.6-.6-1.3-.7-2.1s-.1-1.6-.1-2.5,0-1.6.2-2.4c.1-.8.4-1.5.7-2.1s.9-1.1,1.6-1.5c.7-.4,1.6-.6,2.8-.6s2.2.2,2.9.5c.7.3,1.2.8,1.6,1.4.4.6.6,1.3.7,2.1,0,.8.1,1.6.1,2.5s0,1.6-.2,2.4ZM156.5,392.4c0,.5,0,.9.2,1.2,0,.3.2.5.4.6.1.1.3.2.6.2s.4,0,.6-.2c.2-.1.3-.3.4-.6,0-.3.1-.7.2-1.2,0-.5,0-1.1,0-1.9s0-1.4,0-1.9,0-.9-.2-1.2c0-.3-.2-.5-.4-.6-.2-.1-.3-.2-.6-.2s-.4,0-.6.2c-.1.1-.3.3-.4.6,0,.3-.2.7-.2,1.2s0,1.2,0,1.9,0,1.4,0,1.9Z"/>
    <path d="M177.6,380.3l4,16.4h-4.6l-.4-2.9h-3.4l-.4,2.9h-4.5l3.9-16.4h5.4ZM174.9,383.6l-1.2,7h2.4l-1.2-7h0Z"/>
    <path d="M186.2,384.2v1.7h0c.5-1.3,1.4-2,2.8-2s2.3.6,2.9,1.7c.6,1.1.8,2.8.8,5.1s0,2.2-.3,3c-.2.8-.4,1.4-.8,1.9-.3.5-.7.8-1.2,1-.5.2-1,.3-1.6.3s-1.1-.1-1.6-.3c-.5-.2-.8-.7-1-1.3h0v5.4h-4.1v-16.4h4ZM186.4,392.1c0,.4,0,.8.2,1.1,0,.3.2.5.4.6s.3.2.6.2.4,0,.6-.2c.2-.1.3-.3.4-.6,0-.3.1-.6.2-1.1,0-.4,0-1,0-1.7s0-1.2,0-1.7c0-.4,0-.8-.2-1.1,0-.3-.2-.5-.4-.6-.2-.1-.4-.2-.6-.2s-.4,0-.6.2c-.2.1-.3.3-.4.6,0,.3-.1.6-.2,1.1,0,.4,0,1,0,1.7s0,1.2,0,1.7Z"/>
    <path d="M198.2,384.2v1.7h0c.5-1.3,1.4-2,2.8-2s2.3.6,2.9,1.7c.6,1.1.8,2.8.8,5.1s0,2.2-.3,3c-.2.8-.4,1.4-.8,1.9-.3.5-.7.8-1.2,1-.5.2-1,.3-1.6.3s-1.1-.1-1.6-.3c-.5-.2-.8-.7-1-1.3h0v5.4h-4.1v-16.4h4ZM198.3,392.1c0,.4,0,.8.2,1.1,0,.3.2.5.4.6s.3.2.6.2.4,0,.6-.2c.2-.1.3-.3.4-.6,0-.3.1-.6.2-1.1,0-.4,0-1,0-1.7s0-1.2,0-1.7c0-.4,0-.8-.2-1.1,0-.3-.2-.5-.4-.6-.2-.1-.4-.2-.6-.2s-.4,0-.6.2c-.2.1-.3.3-.4.6,0,.3-.1.6-.2,1.1,0,.4,0,1,0,1.7s0,1.2,0,1.7Z"/>
    <path d="M210.3,380.3v16.4h-4.1v-16.4h4.1Z"/>
    <path d="M216.2,380.3v3.1h-4.1v-3.1h4.1ZM216.2,384.2v12.4h-4.1v-12.4h4.1Z"/>
    <path d="M224,387.9c0-.3-.1-.6-.2-.8-.2-.4-.5-.5-.9-.5s-.4,0-.6.2-.3.3-.4.6-.2.7-.2,1.2c0,.5,0,1.1,0,1.9s0,1.4,0,1.9c0,.5.1.9.2,1.2s.2.5.4.6.4.2.6.2c.4,0,.7-.1.9-.4s.3-.8.3-1.6v-.8h3.7c0,1,0,1.8-.3,2.5-.2.7-.5,1.3-.9,1.7-.8.8-2.1,1.2-3.8,1.2s-1.5,0-2.2-.2-1.2-.4-1.7-.9-.8-1.1-1.1-1.9c-.3-.8-.4-1.9-.4-3.3s.1-2.7.4-3.5c.3-.9.7-1.6,1.2-2,.5-.5,1.1-.8,1.8-.9s1.4-.2,2.2-.2,1.7.1,2.3.4c.6.3,1.1.6,1.4,1.1.4.5.6,1,.8,1.6.1.6.2,1.3.2,2.1h-3.7c0-.5,0-.9,0-1.2Z"/>
    <path d="M234.9,396c0-.2,0-.5,0-.7h0c-.2.6-.6,1-1.1,1.2-.5.3-1.1.4-1.7.4s-1.2,0-1.6-.2-.8-.4-1.1-.7c-.3-.3-.5-.7-.6-1.2-.1-.4-.2-.9-.2-1.5s0-1.1.2-1.5c.1-.4.3-.8.6-1.1.3-.3.6-.6,1.1-.8.4-.2,1-.4,1.7-.6l1.6-.4c.4-.1.8-.3.9-.5s.3-.5.3-.9c0-.8-.4-1.2-1.1-1.2s-.7.1-.9.3c-.2.2-.3.7-.3,1.3h-3.6c0-.9.2-1.6.5-2.2.3-.5.7-1,1.2-1.3s1-.5,1.5-.6c.6,0,1.1-.1,1.5-.1.7,0,1.4,0,2,.2.6.1,1.1.3,1.6.6s.8.7,1,1.2.4,1.2.4,2v6.1c0,.6,0,1.1,0,1.5,0,.4.2.8.3,1.2h-4c0-.2-.1-.4-.2-.7ZM234.5,393.7c.2-.3.3-.9.3-1.5v-1.5h0c-.1.2-.3.3-.6.3s-.5.1-.8.3c-.3.2-.5.4-.7.6s-.2.6-.2,1,0,.7.3,1,.4.4.7.4c.5,0,.8-.2,1-.5Z"/>
    <path d="M241.1,384.2v-3.7h4.1v3.7h1.6v2.8h-1.6v5.9c0,.4,0,.6.2.7.2.1.4.2.7.2h.6v2.8c-.4,0-.8,0-1.2,0-.4,0-.8,0-1.1,0-.6,0-1.2,0-1.6,0s-.8-.2-1.1-.4c-.3-.2-.5-.5-.6-1-.1-.4-.2-1-.2-1.7v-6.6h-1.4v-2.8h1.4Z"/>
    <path d="M251.9,380.3v3.1h-4.1v-3.1h4.1ZM251.9,384.2v12.4h-4.1v-12.4h4.1Z"/>
    <path d="M263.7,392.9c-.1.8-.4,1.5-.7,2.1-.4.6-.9,1.1-1.6,1.4-.7.4-1.6.5-2.8.5s-2.2-.2-2.9-.5c-.7-.3-1.2-.8-1.6-1.4-.4-.6-.6-1.3-.7-2.1s-.1-1.6-.1-2.5,0-1.6.2-2.4c.1-.8.4-1.5.7-2.1s.9-1.1,1.6-1.5c.7-.4,1.6-.6,2.8-.6s2.2.2,2.9.5c.7.3,1.2.8,1.6,1.4.4.6.6,1.3.7,2.1,0,.8.1,1.6.1,2.5s0,1.6-.2,2.4ZM257.5,392.4c0,.5,0,.9.2,1.2,0,.3.2.5.4.6.1.1.3.2.6.2s.4,0,.6-.2c.2-.1.3-.3.4-.6,0-.3.1-.7.2-1.2,0-.5,0-1.1,0-1.9s0-1.4,0-1.9,0-.9-.2-1.2c0-.3-.2-.5-.4-.6-.2-.1-.3-.2-.6-.2s-.4,0-.6.2c-.1.1-.3.3-.4.6,0,.3-.2.7-.2,1.2s0,1.2,0,1.9,0,1.4,0,1.9Z"/>
    <path d="M269.2,384.2v1.5h0c.5-1.2,1.5-1.8,3-1.8s.9,0,1.3.1c.4.1.7.3,1,.5.3.3.5.6.7,1,.2.4.3,1,.3,1.7v9.4h-4.1v-8.2c0-.5,0-.9-.2-1.1-.2-.2-.4-.3-.8-.3s-.6.1-.8.3c-.2.2-.2.6-.2,1.1v8.2h-4.1v-12.4h4Z"/>
    <path d="M280.4,393.5c0,.2.1.4.2.5.2.3.5.4.9.4s.6,0,.8-.3c.2-.2.4-.4.4-.8s-.1-.7-.4-.9c-.3-.2-.7-.4-1.1-.5-.4-.2-.9-.3-1.4-.5-.5-.2-1-.4-1.4-.7-.4-.3-.8-.7-1.1-1.2-.3-.5-.4-1.1-.4-1.9s0-1.1.3-1.5c.2-.5.5-.9.9-1.2.4-.4.9-.6,1.5-.8s1.4-.3,2.2-.3c3.1,0,4.7,1.3,4.7,3.9h-3.6c0-.5,0-.9-.3-1.1-.2-.2-.5-.3-.8-.3s-.6,0-.8.3c-.2.2-.3.4-.3.7s.1.6.4.8c.3.2.7.3,1.1.5.4.1.9.3,1.4.4s1,.4,1.4.7c.4.3.8.7,1.1,1.2s.4,1.1.4,1.9-.1,1.2-.3,1.7-.6.9-1,1.3c-.4.4-.9.6-1.6.8-.6.2-1.3.3-2.1.3-1.7,0-3-.3-3.7-1-.8-.7-1.1-1.7-1.1-3.1h3.6c0,.2,0,.5,0,.7Z"/>
    <path d="M299.7,383.7c.1-.7.4-1.3.8-1.7.4-.5.9-.9,1.6-1.1.7-.3,1.6-.4,2.7-.4s1.9.1,2.6.3c.7.2,1.2.5,1.6,1,.4.4.7.9.8,1.4.1.5.2,1.1.2,1.7,0,1.1-.2,2-.6,2.8-.4.8-.9,1.4-1.5,2l-2.5,2.5c-.2.2-.4.4-.6.6-.2.2-.4.5-.4.7h5.6v3.2h-10.7c0-1.2.2-2.2.5-3.3.3-1,1-2,1.9-3l2.9-2.9c.4-.4.7-.8.9-1.2s.3-.9.3-1.5-.1-1.2-.3-1.4c-.2-.3-.5-.4-.8-.4s-.3,0-.4,0c-.1,0-.3.2-.4.3-.1.2-.2.4-.3.7,0,.3-.1.7-.1,1.1v.7h-4c0-.8,0-1.6.2-2.3Z"/>
    <path d="M316.5,385.2c.6,1.7.9,3.5.9,5.4s-.3,3.7-.9,5.4c-.6,1.7-1.4,3.3-2.4,4.9h-3.3c.9-1.6,1.6-3.3,2-5,.4-1.7.6-3.4.6-5.3s-.2-3.6-.6-5.3c-.4-1.7-1.1-3.4-2-5h3.3c1,1.6,1.8,3.2,2.4,4.9Z"/>
    <path d="M324.9,384.5c.2-1.1.5-2,1-2.6.5-.7,1.1-1.2,1.8-1.5s1.7-.5,2.8-.5,2,.2,2.8.5,1.4.8,1.8,1.5c.5.7.8,1.6,1,2.6s.3,2.4.3,3.9,0,2.8-.3,3.9-.5,2-1,2.6-1.1,1.2-1.8,1.5c-.8.3-1.7.4-2.8.4s-2-.1-2.8-.4c-.8-.3-1.4-.8-1.8-1.5s-.8-1.6-1-2.6c-.2-1.1-.3-2.4-.3-3.9s0-2.8.3-3.9ZM329.1,391.2c0,.7,0,1.3.2,1.7,0,.4.2.7.4.9.2.2.4.3.8.3s.6,0,.8-.3c.2-.2.3-.5.4-.9,0-.4.2-1,.2-1.7,0-.7,0-1.6,0-2.7s0-2,0-2.7c0-.7,0-1.3-.2-1.7-.1-.4-.2-.7-.4-.9-.2-.2-.4-.3-.8-.3s-.6,0-.8.3c-.2.2-.3.5-.4.9-.1.4-.2,1-.2,1.7,0,.7,0,1.6,0,2.7s0,2,0,2.7Z"/>
    <path d="M341.8,384.2v1.7h0c.5-1.3,1.4-2,2.8-2s2.3.6,2.9,1.7c.6,1.1.8,2.8.8,5.1s0,2.2-.3,3c-.2.8-.4,1.4-.8,1.9-.3.5-.7.8-1.2,1-.5.2-1,.3-1.6.3s-1.1-.1-1.6-.3c-.5-.2-.8-.7-1-1.3h0v5.4h-4.1v-16.4h4ZM341.9,392.1c0,.4,0,.8.2,1.1,0,.3.2.5.4.6s.3.2.6.2.4,0,.6-.2c.2-.1.3-.3.4-.6,0-.3.1-.6.2-1.1,0-.4,0-1,0-1.7s0-1.2,0-1.7c0-.4,0-.8-.2-1.1,0-.3-.2-.5-.4-.6-.2-.1-.4-.2-.6-.2s-.4,0-.6.2c-.2.1-.3.3-.4.6,0,.3-.1.6-.2,1.1,0,.4,0,1,0,1.7s0,1.2,0,1.7Z"/>
    <path d="M353.4,392.8c0,.7.1,1.1.3,1.3.2.2.5.3.8.3s.7-.1.9-.4c.2-.3.3-.9.3-1.7h3.7c0,1.5-.4,2.7-1.2,3.5-.8.8-2,1.2-3.7,1.2s-1.8-.1-2.5-.3c-.7-.2-1.2-.6-1.6-1.1s-.7-1.2-.9-2c-.2-.8-.3-1.8-.3-3s0-2.2.3-3,.5-1.5.9-2c.4-.5,1-.9,1.6-1.1.7-.2,1.5-.4,2.4-.4s1.6.1,2.2.3c.6.2,1.1.5,1.6,1s.7,1.1.9,1.8.3,1.7.3,2.8v1.3h-6.1v1.6ZM355.4,386.9c-.2-.3-.5-.5-.9-.5s-.7.2-.9.5c-.2.3-.2.8-.2,1.4v.6h2.3v-.6c0-.7,0-1.1-.2-1.4Z"/>
    <path d="M364.7,384.2v1.5h0c.5-1.2,1.5-1.8,3-1.8s.9,0,1.3.1c.4.1.7.3,1,.5s.5.6.7,1c.2.4.3,1,.3,1.7v9.4h-4.1v-8.2c0-.5,0-.9-.2-1.1-.2-.2-.4-.3-.8-.3s-.6.1-.8.3c-.2.2-.2.6-.2,1.1v8.2h-4.1v-12.4h4Z"/>
    <path d="M386,380.3l4,16.4h-4.6l-.4-2.9h-3.4l-.4,2.9h-4.5l3.9-16.4h5.4ZM383.3,383.6l-1.2,7h2.4l-1.2-7h0Z"/>
    <path d="M394.7,384.2v1.7h0c.5-1.3,1.4-2,2.8-2s2.3.6,2.9,1.7.8,2.8.8,5.1,0,2.2-.3,3c-.2.8-.4,1.4-.8,1.9-.3.5-.7.8-1.2,1-.5.2-1,.3-1.6.3s-1.1-.1-1.6-.3c-.5-.2-.8-.7-1-1.3h0v5.4h-4.1v-16.4h4ZM394.8,392.1c0,.4,0,.8.2,1.1,0,.3.2.5.4.6.2.1.3.2.6.2s.4,0,.6-.2.3-.3.4-.6c0-.3.1-.6.2-1.1,0-.4,0-1,0-1.7s0-1.2,0-1.7c0-.4,0-.8-.2-1.1,0-.3-.2-.5-.4-.6-.2-.1-.4-.2-.6-.2s-.4,0-.6.2c-.2.1-.3.3-.4.6,0,.3-.1.6-.2,1.1,0,.4,0,1,0,1.7s0,1.2,0,1.7Z"/>
    <path d="M406.6,384.2v1.7h0c.5-1.3,1.4-2,2.8-2s2.3.6,2.9,1.7.8,2.8.8,5.1,0,2.2-.3,3c-.2.8-.4,1.4-.8,1.9-.3.5-.7.8-1.2,1-.5.2-1,.3-1.6.3s-1.1-.1-1.6-.3c-.5-.2-.8-.7-1-1.3h0v5.4h-4.1v-16.4h4ZM406.8,392.1c0,.4,0,.8.2,1.1,0,.3.2.5.4.6.2.1.3.2.6.2s.4,0,.6-.2.3-.3.4-.6c0-.3.1-.6.2-1.1,0-.4,0-1,0-1.7s0-1.2,0-1.7c0-.4,0-.8-.2-1.1,0-.3-.2-.5-.4-.6-.2-.1-.4-.2-.6-.2s-.4,0-.6.2c-.2.1-.3.3-.4.6,0,.3-.1.6-.2,1.1,0,.4,0,1,0,1.7s0,1.2,0,1.7Z"/>
    <path d="M418.7,380.3v16.4h-4.1v-16.4h4.1Z"/>
    <path d="M424.6,380.3v3.1h-4.1v-3.1h4.1ZM424.6,384.2v12.4h-4.1v-12.4h4.1Z"/>
    <path d="M432.5,387.9c0-.3-.1-.6-.2-.8-.2-.4-.5-.5-.9-.5s-.4,0-.6.2-.3.3-.4.6c0,.3-.2.7-.2,1.2s0,1.1,0,1.9,0,1.4,0,1.9.1.9.2,1.2c0,.3.2.5.4.6s.4.2.6.2c.4,0,.7-.1.9-.4s.3-.8.3-1.6v-.8h3.7c0,1,0,1.8-.3,2.5-.2.7-.5,1.3-.9,1.7-.8.8-2.1,1.2-3.8,1.2s-1.5,0-2.2-.2-1.2-.4-1.7-.9-.8-1.1-1.1-1.9c-.3-.8-.4-1.9-.4-3.3s.1-2.7.4-3.5c.3-.9.7-1.6,1.2-2,.5-.5,1.1-.8,1.8-.9s1.4-.2,2.2-.2,1.7.1,2.3.4,1.1.6,1.4,1.1c.4.5.6,1,.8,1.6.1.6.2,1.3.2,2.1h-3.7c0-.5,0-.9,0-1.2Z"/>
    <path d="M443.3,396c0-.2,0-.5,0-.7h0c-.2.6-.6,1-1.1,1.2s-1.1.4-1.7.4-1.2,0-1.6-.2c-.4-.2-.8-.4-1.1-.7-.3-.3-.5-.7-.6-1.2-.1-.4-.2-.9-.2-1.5s0-1.1.2-1.5c.1-.4.3-.8.6-1.1s.6-.6,1.1-.8c.4-.2,1-.4,1.7-.6l1.6-.4c.4-.1.8-.3.9-.5.2-.2.3-.5.3-.9,0-.8-.4-1.2-1.1-1.2s-.7.1-.9.3c-.2.2-.3.7-.3,1.3h-3.6c0-.9.2-1.6.5-2.2.3-.5.7-1,1.2-1.3.5-.3,1-.5,1.5-.6.6,0,1.1-.1,1.5-.1.7,0,1.4,0,2,.2.6.1,1.1.3,1.6.6.4.3.8.7,1,1.2.2.5.4,1.2.4,2v6.1c0,.6,0,1.1,0,1.5,0,.4.2.8.3,1.2h-4c0-.2-.1-.4-.2-.7ZM442.9,393.7c.2-.3.3-.9.3-1.5v-1.5h0c-.1.2-.3.3-.6.3s-.5.1-.8.3c-.3.2-.5.4-.7.6s-.2.6-.2,1,0,.7.3,1c.2.2.4.4.7.4.5,0,.8-.2,1-.5Z"/>
    <path d="M449.5,384.2v-3.7h4.1v3.7h1.6v2.8h-1.6v5.9c0,.4,0,.6.2.7s.4.2.7.2h.6v2.8c-.4,0-.8,0-1.2,0-.4,0-.8,0-1.1,0-.6,0-1.2,0-1.6,0-.4,0-.8-.2-1.1-.4-.3-.2-.5-.5-.6-1-.1-.4-.2-1-.2-1.7v-6.6h-1.4v-2.8h1.4Z"/>
    <path d="M460.4,380.3v3.1h-4.1v-3.1h4.1ZM460.4,384.2v12.4h-4.1v-12.4h4.1Z"/>
    <path d="M472.1,392.9c-.1.8-.4,1.5-.7,2.1-.4.6-.9,1.1-1.6,1.4-.7.4-1.6.5-2.8.5s-2.2-.2-2.9-.5c-.7-.3-1.2-.8-1.6-1.4-.4-.6-.6-1.3-.7-2.1s-.1-1.6-.1-2.5,0-1.6.2-2.4c.1-.8.4-1.5.7-2.1.4-.6.9-1.1,1.6-1.5.7-.4,1.6-.6,2.8-.6s2.2.2,2.9.5c.7.3,1.2.8,1.6,1.4.4.6.6,1.3.7,2.1,0,.8.1,1.6.1,2.5s0,1.6-.2,2.4ZM465.9,392.4c0,.5,0,.9.2,1.2,0,.3.2.5.4.6s.3.2.6.2.4,0,.6-.2.3-.3.4-.6c0-.3.1-.7.2-1.2,0-.5,0-1.1,0-1.9s0-1.4,0-1.9c0-.5,0-.9-.2-1.2,0-.3-.2-.5-.4-.6-.2-.1-.3-.2-.6-.2s-.4,0-.6.2c-.1.1-.3.3-.4.6s-.2.7-.2,1.2c0,.5,0,1.2,0,1.9s0,1.4,0,1.9Z"/>
    <path d="M477.6,384.2v1.5h0c.5-1.2,1.5-1.8,3-1.8s.9,0,1.3.1c.4.1.7.3,1,.5.3.3.5.6.7,1s.3,1,.3,1.7v9.4h-4.1v-8.2c0-.5,0-.9-.2-1.1-.2-.2-.4-.3-.8-.3s-.6.1-.8.3c-.2.2-.2.6-.2,1.1v8.2h-4.1v-12.4h4Z"/>
    <path d="M488.8,393.5c0,.2.1.4.2.5.2.3.5.4.9.4s.6,0,.8-.3c.2-.2.4-.4.4-.8s-.1-.7-.4-.9-.7-.4-1.1-.5c-.4-.2-.9-.3-1.4-.5s-1-.4-1.4-.7c-.4-.3-.8-.7-1.1-1.2-.3-.5-.4-1.1-.4-1.9s0-1.1.3-1.5c.2-.5.5-.9.9-1.2.4-.4.9-.6,1.5-.8s1.4-.3,2.2-.3c3.1,0,4.7,1.3,4.7,3.9h-3.6c0-.5,0-.9-.3-1.1s-.5-.3-.8-.3-.6,0-.8.3c-.2.2-.3.4-.3.7s.1.6.4.8c.3.2.7.3,1.1.5.4.1.9.3,1.4.4.5.2,1,.4,1.4.7.4.3.8.7,1.1,1.2s.4,1.1.4,1.9-.1,1.2-.3,1.7c-.2.5-.6.9-1,1.3s-.9.6-1.6.8c-.6.2-1.3.3-2.1.3-1.7,0-3-.3-3.7-1s-1.1-1.7-1.1-3.1h3.6c0,.2,0,.5,0,.7Z"/>
    <path d="M509.3,381.6c.8-.8,2.1-1.2,3.8-1.2s1.8,0,2.5.3,1.2.5,1.6.9c.4.4.7.9.8,1.4s.2,1.2.2,1.9,0,.7-.1,1c0,.3-.2.7-.4,1-.2.3-.4.6-.7.8-.3.2-.7.4-1.1.5h0c1,.2,1.6.6,2,1.3.4.7.6,1.4.6,2.3,0,1.8-.4,3.2-1.3,4-.9.8-2.2,1.2-4,1.2s-1.7,0-2.4-.2c-.7-.2-1.2-.4-1.7-.8-.4-.4-.8-.9-1-1.6s-.3-1.5-.3-2.5h4c0,.5,0,.8,0,1.1,0,.3.1.6.2.8.2.4.5.6,1,.6s.4,0,.6-.1c.2,0,.3-.2.4-.4,0-.2.1-.5.2-.8,0-.3,0-.7,0-1.3,0-.8-.1-1.3-.4-1.6-.3-.3-.6-.4-1.2-.4h-1.1v-2.7h.6c.3,0,.6,0,.8,0,.2,0,.4-.2.6-.3s.3-.4.3-.7c0-.3.1-.7.1-1.2,0-.7,0-1.2-.3-1.4-.2-.2-.4-.4-.8-.4s-.7.2-.9.5c-.2.3-.3.9-.3,1.8h-3.9c0-1.7.5-2.9,1.3-3.7Z"/>
    <path d="M525,385.2c.6,1.7.9,3.5.9,5.4s-.3,3.7-.9,5.4c-.6,1.7-1.4,3.3-2.4,4.9h-3.3c.9-1.6,1.6-3.3,2-5,.4-1.7.6-3.4.6-5.3s-.2-3.6-.6-5.3c-.4-1.7-1.1-3.4-2-5h3.3c1,1.6,1.8,3.2,2.4,4.9Z"/>
    <path d="M539.7,380.3c1.2,0,2.2.2,2.9.7.7.5,1.2,1.1,1.6,1.8.3.8.6,1.6.6,2.6,0,1,.1,2,.1,3.1s0,2.1-.1,3.1c0,1-.3,1.9-.6,2.6-.3.8-.9,1.4-1.6,1.8-.7.5-1.7.7-2.9.7h-6.2v-16.4h6.2ZM538.6,393.6c.4,0,.7,0,1-.2s.4-.4.6-.7.2-.9.3-1.6,0-1.6,0-2.7,0-2,0-2.7-.1-1.2-.3-1.6-.3-.6-.6-.7-.6-.2-1-.2h-.9v10.3h.9Z"/>
    <path d="M556.6,392.9c-.1.8-.4,1.5-.7,2.1-.4.6-.9,1.1-1.6,1.4-.7.4-1.6.5-2.8.5s-2.2-.2-2.9-.5c-.7-.3-1.2-.8-1.6-1.4-.4-.6-.6-1.3-.7-2.1s-.1-1.6-.1-2.5,0-1.6.2-2.4c.1-.8.4-1.5.7-2.1.4-.6.9-1.1,1.6-1.5.7-.4,1.6-.6,2.8-.6s2.2.2,2.9.5c.7.3,1.2.8,1.6,1.4.4.6.6,1.3.7,2.1,0,.8.1,1.6.1,2.5s0,1.6-.2,2.4ZM550.4,392.4c0,.5,0,.9.2,1.2,0,.3.2.5.4.6s.3.2.6.2.4,0,.6-.2.3-.3.4-.6c0-.3.1-.7.2-1.2,0-.5,0-1.1,0-1.9s0-1.4,0-1.9c0-.5,0-.9-.2-1.2,0-.3-.2-.5-.4-.6-.2-.1-.3-.2-.6-.2s-.4,0-.6.2c-.1.1-.3.3-.4.6s-.2.7-.2,1.2c0,.5,0,1.2,0,1.9s0,1.4,0,1.9Z"/>
    <path d="M562.2,384.2v8.2c0,.5,0,.9.2,1.1.2.2.4.3.8.3s.6-.1.8-.3c.2-.2.2-.6.2-1.1v-8.2h4.1v12.4h-4v-1.5h0c-.5,1.2-1.5,1.8-3,1.8s-.9,0-1.3-.1c-.4,0-.7-.3-1-.5-.3-.3-.5-.6-.7-1-.2-.4-.3-1-.3-1.6v-9.4h4.1Z"/>
    <path d="M574.2,380.3v5.4h0c.2-.6.6-1.1,1-1.3s1-.4,1.6-.4,1.1.1,1.6.3.9.6,1.2,1c.3.5.6,1.1.7,1.9.2.8.3,1.8.3,3,0,2.3-.3,4-.8,5.1s-1.5,1.6-2.9,1.6-1.3-.2-1.8-.5c-.4-.3-.8-.8-1.1-1.5h0v1.7h-4v-16.4h4.1ZM574.3,392.1c0,.4,0,.8.2,1.1,0,.3.2.5.4.6.2.1.3.2.6.2s.4,0,.6-.2.3-.3.4-.6c0-.3.1-.6.2-1.1,0-.4,0-1,0-1.7s0-1.2,0-1.7c0-.4,0-.8-.2-1.1,0-.3-.2-.5-.4-.6-.2-.1-.4-.2-.6-.2s-.4,0-.6.2c-.2.1-.3.3-.4.6,0,.3-.1.6-.2,1.1,0,.4,0,1,0,1.7s0,1.2,0,1.7Z"/>
    <path d="M586.2,380.3v16.4h-4.1v-16.4h4.1Z"/>
    <path d="M591.7,392.8c0,.7.1,1.1.3,1.3.2.2.5.3.8.3s.7-.1.9-.4c.2-.3.3-.9.3-1.7h3.7c0,1.5-.4,2.7-1.2,3.5-.8.8-2,1.2-3.7,1.2s-1.8-.1-2.5-.3c-.7-.2-1.2-.6-1.6-1.1s-.7-1.2-.9-2c-.2-.8-.3-1.8-.3-3s0-2.2.3-3,.5-1.5.9-2c.4-.5,1-.9,1.6-1.1.7-.2,1.5-.4,2.4-.4s1.6.1,2.2.3,1.1.5,1.6,1,.7,1.1.9,1.8.3,1.7.3,2.8v1.3h-6.1v1.6ZM593.7,386.9c-.2-.3-.5-.5-.9-.5s-.7.2-.9.5-.2.8-.2,1.4v.6h2.3v-.6c0-.7,0-1.1-.2-1.4Z"/>
    <path d="M605.9,388.3v3.5h-7.2v-3.5h7.2Z"/>
    <path d="M613.5,387.9c0-.3-.1-.6-.2-.8-.2-.4-.5-.5-.9-.5s-.4,0-.6.2-.3.3-.4.6c0,.3-.2.7-.2,1.2s0,1.1,0,1.9,0,1.4,0,1.9.1.9.2,1.2c0,.3.2.5.4.6s.4.2.6.2c.4,0,.7-.1.9-.4s.3-.8.3-1.6v-.8h3.7c0,1,0,1.8-.3,2.5-.2.7-.5,1.3-.9,1.7-.8.8-2.1,1.2-3.8,1.2s-1.5,0-2.2-.2-1.2-.4-1.7-.9-.8-1.1-1.1-1.9c-.3-.8-.4-1.9-.4-3.3s.1-2.7.4-3.5c.3-.9.7-1.6,1.2-2,.5-.5,1.1-.8,1.8-.9s1.4-.2,2.2-.2,1.7.1,2.3.4,1.1.6,1.4,1.1c.4.5.6,1,.8,1.6.1.6.2,1.3.2,2.1h-3.7c0-.5,0-.9,0-1.2Z"/>
    <path d="M622.7,380.3v16.4h-4.1v-16.4h4.1Z"/>
    <path d="M628.6,380.3v3.1h-4.1v-3.1h4.1ZM628.6,384.2v12.4h-4.1v-12.4h4.1Z"/>
    <path d="M636.5,387.9c0-.3-.1-.6-.2-.8-.2-.4-.5-.5-.9-.5s-.4,0-.6.2-.3.3-.4.6c0,.3-.2.7-.2,1.2s0,1.1,0,1.9,0,1.4,0,1.9.1.9.2,1.2c0,.3.2.5.4.6s.4.2.6.2c.4,0,.7-.1.9-.4s.3-.8.3-1.6v-.8h3.7c0,1,0,1.8-.3,2.5-.2.7-.5,1.3-.9,1.7-.8.8-2.1,1.2-3.8,1.2s-1.5,0-2.2-.2-1.2-.4-1.7-.9-.8-1.1-1.1-1.9c-.3-.8-.4-1.9-.4-3.3s.1-2.7.4-3.5c.3-.9.7-1.6,1.2-2,.5-.5,1.1-.8,1.8-.9s1.4-.2,2.2-.2,1.7.1,2.3.4,1.1.6,1.4,1.1c.4.5.6,1,.8,1.6.1.6.2,1.3.2,2.1h-3.7c0-.5,0-.9,0-1.2Z"/>
    <path d="M645.4,380.3v8.3h0l2.3-4.3h4.4l-3.5,5.1,3.9,7.3h-4.4l-2.1-4.3-.7,1.1v3.2h-4.1v-16.4h4.1Z"/>
    <path d="M657.2,383.9v-3.6h10.7v3.6h-3.2v12.8h-4.3v-12.8h-3.2Z"/>
    <path d="M671.1,384.2v8.2c0,.5,0,.9.2,1.1.2.2.4.3.8.3s.6-.1.8-.3c.2-.2.2-.6.2-1.1v-8.2h4.1v12.4h-4v-1.5h0c-.5,1.2-1.5,1.8-3,1.8s-.9,0-1.3-.1c-.4,0-.7-.3-1-.5-.3-.3-.5-.6-.7-1-.2-.4-.3-1-.3-1.6v-9.4h4.1Z"/>
    <path d="M689.2,384.2v12.2c0,.8-.1,1.5-.4,2.1-.3.6-.6,1-1.1,1.4s-1,.6-1.6.7-1.3.2-2,.2-1.3,0-1.9-.1-1.1-.3-1.5-.5c-.4-.3-.8-.6-1-1.1s-.4-1-.4-1.7h3.7c0,.3,0,.5.3.7.2.2.4.3.8.3s.3,0,.5,0c.2,0,.3,0,.4-.2.1-.1.2-.3.3-.5,0-.2.1-.5.1-.8v-2.3h0c-.3.7-.7,1.2-1.2,1.5s-1.1.4-1.6.4-.8,0-1.3-.2c-.4-.2-.8-.5-1.2-.9-.4-.4-.6-1.1-.9-1.9-.2-.8-.3-1.9-.3-3.1s0-2.2.3-3c.2-.8.4-1.4.8-1.9.3-.5.7-.8,1.2-1s1-.3,1.6-.3,1.1.2,1.6.5c.5.3.9.8,1.1,1.6h0v-1.7h3.9ZM682.9,391.7c0,.4.1.7.2,1,0,.2.2.4.4.5.1,0,.3.1.5.1s.3,0,.5-.1c.1,0,.3-.2.4-.5,0-.2.2-.5.2-1,0-.4,0-.9,0-1.6s0-1.2,0-1.6-.1-.7-.2-1c0-.2-.2-.4-.4-.5s-.3-.1-.5-.1-.4,0-.5.1-.3.2-.4.5c0,.2-.2.5-.2,1,0,.4,0,.9,0,1.6s0,1.2,0,1.6Z"/>
  </g>
</svg>