<?xml version="1.0" encoding="UTF-8"?>
<svg id="Layer_1" xmlns="http://www.w3.org/2000/svg" version="1.1" viewBox="0 0 800 800">
  <!-- Generator: Adobe Illustrator 30.1.0, SVG Export Plug-In . SVG Version: 2.1.1 Build 136)  -->
  <defs>
    <style>
      .st0 {
        fill: #012e21;
      }

      .st1 {
        fill: #fff;
      }
    </style>
  </defs>
  <rect class="st0" width="800" height="800"/>
  <path class="st1" d="M561.9,406v-52.7c-9.4-3.2-17.8-5.3-27.2-6.3v53.9c9.5,1,17.9,2.7,27.2,5h0Z"/>
  <path class="st1" d="M481.5,400.8l34.5-1,.2-54.4c-12-.3-23.2.4-34.6,2.1v53.4h0Z"/>
  <path class="st1" d="M482.8,272.5c6.4-34.2-43.3-27.1-63.3-19.5-4.7,2.4-7.4,5.7-7.1,11l2.3,53-52.8,17.1c2.4,7.1,5.1,13.6,8.3,20.3,68-25.6,143.9-48,213.1-12.9l9.4-24.3c-54.4-27.2-110.2-21.4-162-5.4v-42c16.9-4,35.5-2.5,51.9,2.8h0Z"/>
  <path class="st1" d="M418.9,413.7l40.8-10.5v-52.7c-14.5,3.1-27.7,6.5-40.8,11.1v52.2h0Z"/>
  <path class="st1" d="M708.7,378.2c-178.7,57.3-415.5,224.5-648.2,186.8-4.8-.6-8.5-.8-10.4-.2-.7.2-1.4.6-1.5,1.4,91.2,101.2,524.6-118,660.5-155.1,3.4-.7,6.8,0,8.1,4,2.4,7.3,1.1,15.8.8,24.9-.6,6.2-.2,15.1-4.8,19.6-1.6,1.4-3.9,2.3-6,3.1-21.8,7.7-86.7,30.4-120.6,42.3-11.3,4-21.8,7.7-32.3,11.1-150.7,48.8-306.5,107.5-466.1,101.8-3.2.2-4.5.8-3.5,1.8.6.7,2.4,1.5,4.9,2.5,35,12.4,63.6,8.3,107,5.9,60.3-1.4,263.6-18.5,432.4,45.8,6.5,2.2,12.3,3.1,17.3,1.6,3.9-1.1,7.3-3.5,10.3-6.8,61.5-74.6,87-180.3,94.1-276.5,0-7.3-2.4-13.1-8.9-15.5-9.5-3.1-22.8-1.1-32.9,1.3h0Z"/>
  <path class="st1" d="M217.6,168.6c38.1,8.1,81-23.3,97.4,19.7,1.4,2.7,3.1,5,4.8,7.1,3.6,4.3,7.7,7.2,12.1,9.1,26.3,11.2,65-12.4,84,11.6,3.1,4,3.1,8.7,3.7,13.9.4,1.6-.3,4.9.8,5.8.7.5,1.9,0,2.8-.2,16.2-4.9,30.4-4.4,45.8-1.3,1.6,0,2.4-1.4,2.7-3,13.2-56.2-56.3-73.5-99.7-59-.9-.2-1.1-1.5-1.3-2.4-2.1-17.4-11.4-29.3-26.2-36.7-19.8-9.8-46-10.3-68.1-6.1-35.7,8.1-76.4,19.2-110.7,0-1-.5-1.8-1-2.2-.7,4.2,24.2,31,38.7,54,42.3h.2,0Z"/>
  <polygon class="st1" points="216.4 517.9 216.5 469.9 176.9 480.3 176.9 527.6 216.4 517.9"/>
  <polygon class="st1" points="287 499.6 287 450.8 245.5 462.1 245.7 509.8 287 499.6"/>
  <polygon class="st1" points="358.8 480.3 358.8 431.5 317.3 442.8 317.4 490.6 358.8 480.3"/>
  <path class="st1" d="M247.3,437.8l134.7-36.3v-19.2c-45.7,13-190.3,55.3-238,69.2l.2,13.7,103.1-27.4h0Z"/>
</svg>