<?xml version="1.0" encoding="UTF-8"?>
<svg id="Layer_1" xmlns="http://www.w3.org/2000/svg" version="1.1" viewBox="0 0 800 800">
  <!-- Generator: Adobe Illustrator 30.1.0, SVG Export Plug-In . SVG Version: 2.1.1 Build 136)  -->
  <defs>
    <style>
      .st0 {
        fill: #013d2c;
      }
    </style>
  </defs>
  <path class="st0" d="M579.9,406.6v-58.6c-10.4-3.6-19.8-5.9-30.2-7v59.9c10.6,1.1,19.9,3,30.2,5.6Z"/>
  <path class="st0" d="M490.6,400.8l38.3-1.1.2-60.5c-13.3-.3-25.8.5-38.5,2.3v59.3Z"/>
  <path class="st0" d="M492,258.3c7.1-38-48.1-30.1-70.3-21.7-5.2,2.7-8.2,6.3-7.9,12.2l2.6,58.9-58.7,19c2.7,7.9,5.7,15.1,9.2,22.6,75.6-28.4,159.9-53.3,236.8-14.3l10.5-27c-60.5-30.2-122.4-23.8-180-6v-46.7c18.8-4.4,39.4-2.8,57.7,3.1Z"/>
  <path class="st0" d="M421,415.2l45.3-11.7v-58.6c-16.1,3.5-30.8,7.2-45.3,12.3v58Z"/>
  <path class="st0" d="M743,375.7c-198.6,63.7-461.7,249.4-720.2,207.6-5.3-.7-9.4-.9-11.5-.2-.8.2-1.5.7-1.7,1.5,101.3,112.5,582.9-131.1,733.9-172.3,3.8-.8,7.5,0,9,4.4,2.7,8.1,1.2,17.5.9,27.7-.7,6.9-.2,16.8-5.3,21.8-1.8,1.6-4.3,2.6-6.7,3.5-24.2,8.5-96.3,33.8-134,47-12.6,4.4-24.2,8.6-35.9,12.3-167.4,54.2-340.6,119.4-517.9,113.1-3.6.2-5,.9-3.9,2,.7.8,2.7,1.7,5.4,2.8,38.9,13.8,70.7,9.2,118.9,6.6,67-1.6,292.9-20.6,480.4,50.9,7.2,2.5,13.7,3.4,19.2,1.8,4.3-1.2,8.1-3.9,11.5-7.6,68.3-82.9,96.7-200.3,104.5-307.2,0-8.1-2.7-14.6-9.9-17.2-10.5-3.5-25.3-1.2-36.6,1.4h-.1Z"/>
  <path class="st0" d="M197.4,142.8c42.3,9,90-25.9,108.2,21.9,1.6,3,3.4,5.6,5.3,7.9,4,4.8,8.6,8,13.5,10.1,29.2,12.4,72.2-13.8,93.3,12.9,3.4,4.4,3.4,9.7,4.1,15.4.4,1.8-.3,5.4.9,6.4.8.6,2.1,0,3.1-.2,18-5.4,33.8-4.9,50.9-1.4,1.8.1,2.7-1.6,3-3.3,14.7-62.5-62.6-81.7-110.8-65.6-1-.2-1.2-1.7-1.4-2.7-2.3-19.3-12.7-32.6-29.1-40.8-22-10.9-51.1-11.5-75.7-6.8-39.7,9-84.9,21.3-123,0-1.1-.6-2-1.1-2.4-.8,4.7,26.9,34.4,43,60,47h.2Z"/>
  <polygon class="st0" points="196 531 196.1 477.6 152.1 489.2 152.2 541.7 196 531"/>
  <polygon class="st0" points="274.5 510.6 274.5 456.4 228.4 469 228.6 522 274.5 510.6"/>
  <polygon class="st0" points="354.3 489.2 354.3 435 308.1 447.5 308.3 500.6 354.3 489.2"/>
  <path class="st0" d="M230.4,442l149.7-40.3v-21.3c-50.8,14.4-211.4,61.4-264.5,76.9l.2,15.2,114.6-30.4Z"/>
</svg>